# xmcd CD database file
#
# Track frame offsets:
#	150
#	22676
#	45168
#	60994
#	75385
#	89327
#	106240
#	122104
#	142649
#
# Disc length: 2049 seconds
#
# Revision: 0
# Processed by: cddbd v1.5.1PL0 Copyright (c) Steve Scherf et al.
# Submitted via: CDex 1.51
#
DISCID=5507ff09
DTITLE=Turnaround - Jazz
DYEAR=2004
DGENRE=Jazz
TTITLE0=Satin Doll
TTITLE1=Gree Dolphin St
TTITLE2=Freddy Freelouder
TTITLE3=Saint Thomas
TTITLE4=The Theme
TTITLE5=There Will Never Be Another You
TTITLE6=Some Day My Prince Will Come
TTITLE7=Night And day
TTITLE8=My Foolish Heart
EXTD=YEAR: 2004
EXTT0=
EXTT1=
EXTT2=
EXTT3=
EXTT4=
EXTT5=
EXTT6=
EXTT7=
EXTT8=
PLAYORDER=
